<svg id="Capa_1" enable-background="new 0 0 512 512" height="512" viewBox="0 0 512 512" width="512" xmlns="http://www.w3.org/2000/svg"><g><path d="m391 76c0-8.284-6.716-15-15-15s-15 6.716-15 15v45h-15c-10.449 0-20.542 1.542-30.074 4.396 1.747-7.736 2.648-15.739 2.648-23.896 0-28.403-10.876-54.949-30.628-74.767l-21.098-22.093c-2.83-2.963-6.75-4.64-10.848-4.64s-8.018 1.677-10.848 4.64l-21.098 22.093c-17.84 17.906-28.572 42.54-30.347 67.984-8.831-2.418-18.119-3.717-27.707-3.717h-15v-45c0-8.284-6.716-15-15-15s-15 6.716-15 15v90c0 15.982 3.633 31.573 10.466 45.701-6.067 1.923-10.466 7.596-10.466 14.299v30c0 15.982 3.633 31.573 10.466 45.701-6.067 1.923-10.466 7.596-10.466 14.299v30c0 57.897 47.103 105 105 105h15v76c0 8.284 6.716 15 15 15s15-6.716 15-15v-46h15c57.897 0 105-47.103 105-105v-30c0-6.703-4.399-12.376-10.466-14.299 6.833-14.128 10.466-29.719 10.466-45.701v-30c0-6.703-4.399-12.376-10.466-14.299 6.833-14.128 10.466-29.719 10.466-45.701 0-11.007 0-80.336 0-90zm-224.994 195c-9.712-12.933-15.006-28.681-15.006-45v-15h15c41.355 0 75 33.645 75 75v16.596c-19.071-19.482-45.643-31.594-74.994-31.596zm104.994 45c0-41.355 33.645-75 75-75h15v15c0 16.319-5.293 32.067-15.006 45-29.351.002-55.923 12.114-74.994 31.596zm90-165v15c0 16.319-5.293 32.067-15.006 45-29.351.002-55.923 12.114-74.994 31.596v-16.596c0-41.355 33.645-75 75-75zm-115.366-103.427 10.366-10.854c9.883 10.347 10.406 10.901 10.607 11.101 29.097 29.098 29.097 78.263 0 107.36l-2.752 2.752c-7.964-20.4-22.132-37.715-40.172-49.622-1.728-21.118 4.871-42.761 21.951-60.737zm-4.634 148.427v16.596c-19.071-19.482-45.643-31.595-74.994-31.596-9.712-12.933-15.006-28.681-15.006-45v-15h15c41.355 0 75 33.645 75 75zm-90 120v-15h15c41.355 0 75 33.645 75 75v15h-15c-41.355 0-75-33.645-75-75zm210 30c0 41.355-33.645 75-75 75h-15v-15c0-41.355 33.645-75 75-75h15z" fill="#004B8E" /></g></svg>